<?xml version="1.0" ?><svg height="240px" version="1.1" viewBox="0 0 240 240" width="240px" xmlns="http://www.w3.org/2000/svg" xmlns:xlink="http://www.w3.org/1999/xlink"><title/><desc/><g fill="none" fill-rule="evenodd" id="trade" stroke="none" stroke-width="1"><g id="bounding-box"><polygon id="shape" points="0 0 240 0 240 240 0 240"/></g><rect fill="#E8F7FF" height="35" id="Rectangle" rx="8" stroke="#46AAF7" stroke-width="10" width="20" x="175" y="70"/><rect fill="#46AAF7" height="20" id="line" width="10" x="60" y="150"/><rect fill="#46AAF7" height="20" id="line-copy" width="10" x="100" y="40"/><rect fill="#46AAF7" height="20" id="line-copy-2" width="10" x="100" y="180"/><rect fill="#46AAF7" height="20" id="line-copy-3" width="10" x="140" y="60"/><rect fill="#46AAF7" height="20" id="line-copy-4" width="10" x="140" y="155"/><rect fill="#46AAF7" height="20" id="line-copy-5" width="10" x="180" y="45"/><rect fill="#46AAF7" height="20" id="line-copy-6" width="10" x="180" y="110"/><rect fill="#46AAF7" height="20" id="line" width="10" x="60" y="210"/><rect fill="#E8F7FF" height="65" id="Rectangle-Copy" rx="8" stroke="#46AAF7" stroke-width="10" width="20" x="135" y="85"/><rect fill="#E8F7FF" height="110" id="Rectangle-Copy-2" rx="8" stroke="#46AAF7" stroke-width="10" width="20" x="95" y="65"/><rect fill="#E8F7FF" height="32" id="Rectangle-Copy-3" rx="8" stroke="#46AAF7" stroke-width="10" width="20" x="55" y="173"/></g></svg>